HIERARCHY
ROOT SimulationBone
{
	OFFSET 0.000000 0.000000 0.000000
	CHANNELS 6 Xposition Yposition Zposition Zrotation Yrotation Xrotation 
	JOINT Hips
	{
		OFFSET 0.000000 0.000000 0.000000
		CHANNELS 6 Xposition Yposition Zposition Zrotation Yrotation Xrotation 
		JOINT RightUpLeg
		{
			OFFSET 0.103458 1.857831 10.548505
			CHANNELS 3 Zrotation Yrotation Xrotation
			JOINT RightLeg
			{
				OFFSET 43.500000 -0.000031 0.000002
				CHANNELS 3 Zrotation Yrotation Xrotation
				JOINT RightFoot
				{
					OFFSET 42.372200 0.000023 0.000003
					CHANNELS 3 Zrotation Yrotation Xrotation
					JOINT RightToe
					{
						OFFSET 17.299997 -0.000001 -0.000010
						CHANNELS 3 Zrotation Yrotation Xrotation
						End Site
						{
							OFFSET 0.000000 0.000000 0.000000
						}
					}
				}
			}
		}
		JOINT LeftUpLeg
		{
			OFFSET 0.103457 1.857828 -10.548510
			CHANNELS 3 Zrotation Yrotation Xrotation
			JOINT LeftLeg
			{
				OFFSET 43.500046 -0.000015 0.000002
				CHANNELS 3 Zrotation Yrotation Xrotation
				JOINT LeftFoot
				{
					OFFSET 42.372261 -0.000008 0.000023
					CHANNELS 3 Zrotation Yrotation Xrotation
					JOINT LeftToe
					{
						OFFSET 17.299990 -0.000007 -0.000002
						CHANNELS 3 Zrotation Yrotation Xrotation
						End Site
						{
							OFFSET 0.000000 0.000000 0.000000
						}
					}
				}
			}
		}
		JOINT Spine
		{
			OFFSET 6.901967 -2.603726 -0.000001
			CHANNELS 3 Zrotation Yrotation Xrotation
			JOINT Spine1
			{
				OFFSET 12.588100 -0.000009 -0.000003
				CHANNELS 3 Zrotation Yrotation Xrotation
				JOINT Spine2
				{
					OFFSET 12.343202 0.000008 0.000008
					CHANNELS 3 Zrotation Yrotation Xrotation
					JOINT Neck
					{
						OFFSET 25.832897 -0.000015 -0.000004
						CHANNELS 3 Zrotation Yrotation Xrotation
						JOINT Head
						{
							OFFSET 11.766609 0.000013 -0.000006
							CHANNELS 3 Zrotation Yrotation Xrotation
							End Site
							{
								OFFSET 0.000000 0.000000 0.000000
							}
						}
					}
					JOINT RightShoulder
					{
						OFFSET 19.745911 -1.480373 6.000098
						CHANNELS 3 Zrotation Yrotation Xrotation
						JOINT RightArm
						{
							OFFSET 11.284123 -0.000007 -0.000032
							CHANNELS 3 Zrotation Yrotation Xrotation
							JOINT RightForeArm
							{
								OFFSET 33.000050 0.000005 0.000031
								CHANNELS 3 Zrotation Yrotation Xrotation
								JOINT RightHand
								{
									OFFSET 25.200008 0.000017 0.000013
									CHANNELS 3 Zrotation Yrotation Xrotation
									End Site
									{
										OFFSET 0.000000 0.000000 0.000000
									}
								}
							}
						}
					}
					JOINT LeftShoulder
					{
						OFFSET 19.746092 -1.480379 -6.000077
						CHANNELS 3 Zrotation Yrotation Xrotation
						JOINT LeftArm
						{
							OFFSET 11.284136 -0.000017 -0.000017
							CHANNELS 3 Zrotation Yrotation Xrotation
							JOINT LeftForeArm
							{
								OFFSET 33.000099 0.000019 0.000015
								CHANNELS 3 Zrotation Yrotation Xrotation
								JOINT LeftHand
								{
									OFFSET 25.199780 0.000140 0.000408
									CHANNELS 3 Zrotation Yrotation Xrotation
									End Site
									{
										OFFSET 0.000000 0.000000 0.000000
									}
								}
							}
						}
					}
				}
			}
		}
	}
}
MOTION
Frames: 8
Frame Time: 0.033333
225.048079 0.000000 132.867452 0.000000 97.713732 0.000000 -2.313489 91.252937 0.424735 90.584243 1.430116 -178.419629 155.050308 -3.219103 173.140350 -78.412860 1.491523 -6.844728 70.837941 4.322154 -1.686697 21.454565 0.003112 0.000011 168.095914 -0.709198 -178.824325 -26.219805 2.025629 6.614982 78.568219 -4.173251 2.038441 21.454555 -0.003089 0.000000 8.038881 1.027794 0.368523 6.072884 2.034948 0.790368 5.754597 2.039566 0.778048 8.630439 4.240294 8.939066 -11.942697 -7.990252 12.200196 -164.082686 -72.342782 -17.748718 1.617153 58.555813 41.527680 -30.412346 -16.185417 1.339929 10.632322 -4.790713 4.370001 -174.468754 78.062369 7.162387 -36.322837 -44.461994 -27.375873 -36.713332 12.755564 -1.229318 4.876504 -4.092435 -25.446228 
224.626341 0.000000 128.405024 0.000000 98.449972 0.000000 -2.383973 91.339378 0.450631 90.722387 1.520874 179.661970 150.625028 -4.080997 172.524049 -74.543571 0.618541 -6.756511 72.032384 4.409026 -1.364163 21.454555 0.003113 0.000018 172.285033 -0.806800 -179.032932 -23.948872 2.499083 5.955548 80.334001 -3.854739 1.518228 21.454551 -0.003094 0.000000 7.992965 0.856186 0.799365 5.985722 1.670096 1.641914 5.667592 1.679852 1.631793 9.104818 2.874946 9.312175 -13.353717 -6.768510 12.175390 -160.978324 -71.968918 -20.944024 5.119819 56.402941 46.237427 -31.613233 -16.471558 1.382690 9.875262 -3.260123 4.685911 -179.632281 78.671908 1.913200 -39.596526 -43.453844 -24.574326 -42.844646 13.675727 -1.447792 3.759569 -3.858662 -28.911894 
224.142749 0.000000 123.940295 0.000000 99.127888 0.000000 -2.371572 91.099213 0.513332 91.050398 1.765278 178.025810 147.427256 -4.991808 173.042187 -67.904901 -0.780020 -6.954473 72.039166 4.400585 -2.029904 21.454565 0.003112 0.000020 176.576632 -0.808398 -178.921545 -22.048616 3.034756 5.182512 82.191573 -3.433007 1.082125 21.454550 -0.003088 -0.000001 8.074341 0.754810 1.175083 6.151415 1.446397 2.388630 5.833502 1.460643 2.379865 8.447330 1.825743 9.401258 -13.661880 -6.344685 12.052921 -157.554310 -71.725715 -24.468642 7.392015 54.853444 49.160495 -32.716261 -16.425316 1.403091 8.116782 -2.211573 4.454908 176.475614 79.581307 -2.025880 -43.330788 -41.956937 -21.545659 -49.020076 14.595021 -1.692116 2.671727 -2.948125 -30.688381 
223.603117 0.000000 119.474736 0.000000 99.741719 0.000000 -2.219915 90.503754 0.542183 91.342404 2.111736 176.817025 145.457553 -5.460802 173.563166 -58.718645 -1.472252 -7.423584 71.874777 4.915442 -1.584672 21.454562 0.003114 0.000017 -179.039107 -0.841804 -178.345118 -20.253287 3.273851 4.320729 84.334470 -2.880142 0.930727 21.454557 -0.003101 0.000000 8.192213 0.715148 1.455664 6.389416 1.349200 2.948602 6.071674 1.366822 2.940413 7.613762 0.671646 9.566081 -14.194247 -5.521617 11.862624 -156.643395 -71.204333 -25.415841 9.742659 53.135160 51.315375 -34.194475 -16.628394 1.448836 7.459451 -2.168793 4.873198 173.893748 80.755922 -4.617216 -47.237660 -40.411962 -16.954585 -54.578023 14.814064 -1.890880 0.854525 -1.938206 -31.606168 
223.010660 0.000000 115.005538 0.000000 100.284198 0.000000 -1.901327 89.625359 0.521571 91.659978 2.434959 175.832771 145.346070 -5.614306 175.251466 -46.384078 -2.580512 -7.745159 71.429456 5.106764 -1.853955 21.454558 0.003101 0.000018 -174.348556 -0.708303 -178.895003 -18.150794 3.898827 4.123704 86.550053 -2.751485 0.989407 21.454553 -0.003096 -0.000001 8.308766 0.691901 1.694099 6.624373 1.286055 3.425091 6.306799 1.306556 3.417272 7.217812 0.258105 9.654984 -15.220105 -5.383986 11.925445 -156.136991 -70.950393 -25.942307 12.042962 52.359967 52.270205 -35.138677 -16.927879 1.489837 7.646660 -2.256830 5.414968 171.486174 80.907764 -7.053277 -49.855880 -38.333901 -12.591331 -59.878964 14.704755 -2.073843 -0.555993 -0.914332 -31.886448 
222.368757 0.000000 110.520671 0.000000 100.761133 0.000000 -1.651927 88.775970 0.482286 91.711221 2.244329 175.003765 146.635637 -4.953989 176.818913 -31.441990 -2.812893 -7.689308 69.858628 5.076626 -1.856112 21.454562 0.003099 0.000014 -169.889126 -0.215387 179.129197 -15.658690 4.467021 4.921147 88.103805 -3.235755 1.432833 21.454555 -0.003094 -0.000001 8.360497 0.562726 1.868285 6.725157 1.016324 3.766120 6.407746 1.038890 3.759932 7.240380 0.671292 9.761492 -16.204366 -5.701254 12.259919 -155.279105 -70.793415 -26.828910 13.744757 52.521880 51.244809 -34.831919 -16.720923 1.469378 6.787833 -2.532691 5.744908 170.444967 80.944790 -8.107200 -51.955671 -36.805420 -7.993483 -64.603324 14.217780 -2.220792 -0.965573 -0.209932 -32.560728 
221.682890 0.000000 106.018350 0.000000 101.170913 0.000000 -1.299529 87.865692 0.399823 91.848154 1.794762 174.486020 148.350684 -3.926795 -179.599032 -18.122199 -3.377060 -8.440920 67.160881 5.587380 -2.017786 21.454563 0.003126 0.000020 -165.986082 0.467304 179.611490 -14.669332 4.112231 4.520546 89.373742 -2.808257 2.484499 21.454555 -0.003099 -0.000001 8.398177 0.434352 1.915730 6.796406 0.755815 3.853644 6.479044 0.778928 3.849016 7.348377 0.806425 9.966710 -17.009270 -5.868567 12.606338 -153.896210 -70.678415 -28.255231 15.218314 53.320466 50.574587 -33.899656 -16.582979 1.439267 6.671039 -2.201190 4.950372 169.283056 81.400931 -9.269287 -53.601682 -36.525007 -2.599358 -68.651290 13.236021 -2.314295 -1.307228 -0.527763 -33.953950 
220.969356 0.000000 101.487401 0.000000 101.502635 0.000000 -0.880242 86.831444 0.257579 91.911405 1.511274 173.917968 148.748597 -3.501796 -178.203966 -13.054573 -4.272618 -9.558603 67.429752 6.167602 -2.721202 21.454557 0.003102 0.000015 -163.293909 0.931193 179.778051 -15.924146 3.520856 4.324471 90.027453 -2.485095 3.787880 21.454551 -0.003092 0.000001 8.357075 0.343741 1.965142 6.711310 0.573344 3.946860 6.394002 0.597007 3.943332 7.767643 1.257806 10.186425 -17.661662 -6.422924 13.139546 -154.552373 -70.266527 -27.589482 16.978749 53.530662 50.619130 -33.464310 -16.896460 1.449714 7.823451 -1.636303 4.408070 168.474074 81.227321 -10.094335 -54.214633 -36.881212 1.552938 -71.763090 12.345429 -2.380049 -2.763769 0.091451 -32.872710 
